<svg width="79" height="87" viewBox="0 0 79 87" fill="none" xmlns="http://www.w3.org/2000/svg">
<g clip-path="url(#clip0_208_49)">
<path d="M50.4798 44.0597L78.1967 67.9648C77.6612 70.4428 75.5187 72.3377 72.9747 72.3377H6.02552C3.61536 72.3377 1.60688 70.5885 0.937339 68.2564L28.5204 43.914L35.6171 50.036C35.6171 50.036 37.6256 51.9309 39.634 51.9309C41.6425 51.9309 43.651 50.036 43.651 50.036L50.4798 44.0597ZM78.3306 19.8631L50.4798 44.0597L43.651 50.036C43.651 50.036 41.6425 51.9309 39.634 51.9309C37.6256 51.9309 35.6171 50.036 35.6171 50.036L28.5204 43.914L0.669647 19.8631C0.669647 16.6564 3.07982 14.0327 6.02552 14.0327H72.9747C75.9204 14.0327 78.3306 16.6564 78.3306 19.8631ZM78.3306 19.8631V66.5072C78.3306 67.0902 78.3306 67.5275 78.1967 67.9648L50.4798 44.0597L78.3306 19.8631ZM28.3866 43.914L0.803493 68.2564C0.669647 67.6734 0.535645 67.0902 0.535645 66.5072V19.8631L28.3866 43.914Z" fill="#8CD771"/>
<path d="M72.9746 73.0666H6.02542C2.67802 73.0666 0 70.1512 0 66.5072V27.1513C0 26.714 0.267849 26.4225 0.669543 26.4225C1.07124 26.4225 1.33909 26.714 1.33909 27.1513V66.5072C1.33909 69.2767 3.48141 71.609 6.02558 71.609H72.9747C75.5187 71.609 77.6612 69.2768 77.6612 66.5072V27.1513C77.6612 26.714 77.9291 26.4225 78.3308 26.4225C78.7325 26.4225 79.0003 26.714 79.0003 27.1513V66.5072C79 70.1512 76.322 73.0666 72.9746 73.0666ZM72.9746 64.3208C72.8407 64.3208 72.7067 64.3208 72.5729 64.1751L53.8271 48.1411C53.6932 47.9954 53.5592 47.8496 53.5592 47.5581C53.5592 47.4124 53.5592 47.2666 53.6931 47.1209C53.9609 46.8293 54.3626 46.6836 54.6303 46.9752L73.3761 63.0091C73.51 63.1548 73.644 63.3007 73.644 63.5921C73.644 63.7378 73.644 63.8837 73.5101 64.0294C73.3763 64.1749 73.1084 64.3208 72.9746 64.3208ZM6.02542 64.3208C5.89157 64.3208 5.62372 64.1751 5.48988 64.0292C5.35603 63.8833 5.35603 63.7376 5.35603 63.5919C5.35603 63.4462 5.48988 63.1546 5.62388 63.0089L24.3697 46.975C24.6375 46.6834 25.0392 46.8293 25.3069 47.1207C25.4408 47.2664 25.4408 47.4123 25.4408 47.558C25.4408 47.7037 25.3069 47.9953 25.1729 48.141L6.42711 64.1749C6.29327 64.3208 6.15927 64.3208 6.02542 64.3208ZM39.4999 52.6597C37.3576 52.6597 35.0813 50.619 35.0813 50.619L0.267849 20.4461C0.133846 20.3004 0 20.1547 0 19.8631C0 16.2191 2.67802 13.3038 6.02542 13.3038H72.9746C76.322 13.3038 79 16.2191 79 19.8631C79 20.1547 78.8662 20.3004 78.7322 20.4461L43.9186 50.7649C43.9186 50.7649 41.7762 52.6597 39.4999 52.6597ZM1.33893 19.5716L35.8847 49.5987C35.8847 49.5987 37.7593 51.3479 39.4999 51.3479C41.2405 51.3479 43.1152 49.7444 43.1152 49.7444L77.6609 19.7173C77.5271 17.0935 75.5186 14.9071 72.9744 14.9071H6.02542C3.48141 14.7614 1.47293 16.8021 1.33893 19.5716Z" fill="#51565F"/>
</g>
<defs>
<clipPath id="clip0_208_49">
<rect width="79" height="86" fill="white" transform="translate(0 0.185181)"/>
</clipPath>
</defs>
</svg>
