<svg width="51" height="46" viewBox="0 0 51 46" fill="none" xmlns="http://www.w3.org/2000/svg">
<g clip-path="url(#clip0_105_632)">
<path d="M5.31239 45.999C3.90389 45.9978 2.55348 45.4925 1.55751 44.5942C0.561553 43.6959 0.00140639 42.4779 0 41.2075V4.79157C0.00168706 3.52123 0.561922 2.30336 1.55782 1.4051C2.55372 0.506832 3.90397 0.00152167 5.31239 0H45.6865C47.095 0.00152167 48.4452 0.506832 49.4411 1.4051C50.437 2.30336 50.9972 3.52123 50.9989 4.79157V41.2075C50.9975 42.4779 50.4374 43.6959 49.4414 44.5942C48.4455 45.4925 47.095 45.9978 45.6865 45.999H5.31239ZM33.9993 44.0824H45.6865C46.5319 44.0824 47.3426 43.7795 47.9404 43.2403C48.5382 42.7012 48.874 41.97 48.874 41.2075V30.666H33.9993V44.0824ZM18.0621 44.0824H32.9368V30.666H18.0621V44.0824ZM2.12496 41.2075C2.12496 41.97 2.46077 42.7012 3.05853 43.2403C3.65629 43.7795 4.46703 44.0824 5.31239 44.0824H16.9996V30.666H2.12496V41.2075ZM33.9993 29.7077H48.874V16.2913H33.9993V29.7077ZM29.4381 29.7077H32.9368V26.553L29.4381 29.7077ZM25.1882 29.7077H28.6869L28.3118 29.3694L32.5618 25.5362L32.9368 25.8745V22.7187L25.1882 29.7077ZM20.9382 29.7077H24.437L24.0609 29.3694L32.5607 21.7029L32.9368 22.0412V18.8855L20.9382 29.7077ZM18.0621 29.7077H20.1871L19.812 29.3694L32.5618 17.8697L32.9368 18.208V16.2913H32.6287C32.7325 15.9775 32.8103 15.6572 32.8614 15.333H32.9368V1.91663H18.0621V15.333H18.1376C18.1893 15.6571 18.267 15.9774 18.3702 16.2913H18.0621V19.4461L19.4125 18.229C19.6175 18.492 19.843 18.7415 20.0872 18.9756L18.4382 20.4638L18.0621 20.1246V23.2803L21.6012 20.0882C21.9178 20.2646 22.2488 20.4191 22.5915 20.5501L18.4372 24.2971L18.0621 23.9578V27.1126L24.5145 21.2928L23.6136 18.8539C22.4519 18.456 21.4816 17.7034 20.8715 16.7269C20.2613 15.7505 20.05 14.6121 20.2743 13.5097C20.4985 12.4073 21.1442 11.4107 22.0988 10.6932C23.0535 9.97573 24.2568 9.58281 25.4995 9.58281C26.7421 9.58281 27.9454 9.97573 28.9001 10.6932C29.8548 11.4107 30.5004 12.4073 30.7246 13.5097C30.9489 14.6121 30.7376 15.7505 30.1275 16.7269C29.5174 17.7034 28.5471 18.456 27.3854 18.8539L25.4995 23.9578L24.8907 22.3095L18.4382 28.1294L18.0621 27.7911V29.7077ZM2.12496 29.7077H16.9996V16.2913H2.12496V29.7077ZM22.312 14.3747C22.312 14.9433 22.499 15.4992 22.8492 15.9719C23.1994 16.4447 23.6973 16.8132 24.2797 17.0308C24.8621 17.2484 25.503 17.3053 26.1213 17.1944C26.7396 17.0835 27.3076 16.8096 27.7533 16.4076C28.1991 16.0055 28.5027 15.4933 28.6256 14.9356C28.7486 14.3779 28.6855 13.7998 28.4443 13.2745C28.203 12.7492 27.7945 12.3002 27.2703 11.9843C26.7461 11.6684 26.1299 11.4998 25.4995 11.4998C24.6541 11.4998 23.8434 11.8027 23.2456 12.3418C22.6478 12.881 22.312 13.6122 22.312 14.3747ZM33.9993 15.333H48.874V4.79157C48.874 4.02909 48.5382 3.29785 47.9404 2.75869C47.3426 2.21953 46.5319 1.91663 45.6865 1.91663H33.9993V15.333ZM2.12496 4.79157V15.333H16.9996V1.91663H5.31239C4.46703 1.91663 3.65629 2.21953 3.05853 2.75869C2.46077 3.29785 2.12496 4.02909 2.12496 4.79157Z" fill="black"/>
</g>
<defs>
<clipPath id="clip0_105_632">
<rect width="51" height="46" fill="white"/>
</clipPath>
</defs>
</svg>
