<svg width="54" height="49" viewBox="0 0 54 49" fill="none" xmlns="http://www.w3.org/2000/svg">
<g clip-path="url(#clip0_105_617)">
<path d="M53.1664 15.631L50.5129 22.54V22.5155C49.1468 22.05 47.8069 22.1235 46.4933 22.7115C45.1797 23.2995 44.2602 24.2305 43.761 25.5045C43.2619 26.7785 43.3407 28.028 43.945 29.253C44.5755 30.478 45.5738 31.311 46.9662 31.7765V31.801L44.3128 38.71L4.7473 25.529L7.34822 18.6935C8.71436 19.159 10.0542 19.0855 11.3678 18.4975C12.6814 17.934 13.5747 17.003 14.0738 15.729C14.573 14.455 14.4942 13.2055 13.8636 11.9805C13.2594 10.78 12.2611 9.94701 10.8949 9.48151L13.5747 2.45001L53.1664 15.631ZM40.1093 29.5715L43.7085 20.3595C44.0238 19.6 43.9712 18.767 43.6034 18.032C43.2356 17.297 42.5788 16.7335 41.7644 16.4395L22.0079 9.75101C20.3265 9.18751 18.4087 10.045 17.8044 11.564L14.2052 20.776C13.5747 22.3685 14.4679 24.1325 16.1493 24.696L35.9058 31.409C36.2736 31.5315 36.6414 31.605 37.0354 31.605C38.4016 31.605 39.6626 30.7965 40.1093 29.5715ZM21.5613 10.9025L41.2915 17.591C41.7907 17.7625 42.1847 18.1055 42.4212 18.5465C42.6314 18.9875 42.6576 19.4775 42.4737 19.943L38.8745 29.155C38.5329 30.086 37.3507 30.6005 36.3524 30.2575L16.6222 23.5445C15.5976 23.2015 15.0722 22.148 15.44 21.1925L19.0392 11.9805C19.3019 11.27 20.0638 10.78 20.8782 10.78C21.1147 10.78 21.3249 10.829 21.5613 10.9025ZM39.4787 40.6455C40.3982 41.307 41.4491 41.65 42.6314 41.65H42.6576V49H0.62262V41.748C2.06757 41.748 3.32862 41.258 4.32695 40.3025C5.35156 39.3715 5.877 38.1955 5.877 36.848C5.877 35.5005 5.35156 34.349 4.32695 33.3935C3.30235 32.438 2.06757 31.948 0.62262 31.948V24.5H3.38117L2.64555 26.46L10.1856 28.959C8.84572 29.351 7.84739 30.478 7.84739 31.85V41.65C7.84739 43.3405 9.31861 44.7125 11.1314 44.7125H32.1489C33.9616 44.7125 35.4329 43.3405 35.4329 41.65V37.3625L37.6134 38.0975C37.9287 39.151 38.5592 40.0085 39.4787 40.6455ZM9.16098 41.65V31.85C9.16098 30.8455 10.0542 30.0125 11.1314 30.0125H13.3119L34.1193 36.946V41.65C34.1193 42.6545 33.226 43.4875 32.1489 43.4875H11.1314C10.0542 43.4875 9.16098 42.6545 9.16098 41.65Z" fill="black" fill-opacity="0.9"/>
</g>
<defs>
<clipPath id="clip0_105_617">
<rect width="52.5438" height="49" fill="white" transform="translate(0.62262)"/>
</clipPath>
</defs>
</svg>
