<svg width="50" height="42" viewBox="0 0 50 42" fill="none" xmlns="http://www.w3.org/2000/svg">
<g clip-path="url(#clip0_41_422)">
<path d="M11.024 16.2858C10.5822 16.0196 10.0435 15.8502 9.47221 15.8508C8.90015 15.8502 8.36068 16.0196 7.91889 16.2858C7.25382 16.6888 6.77019 17.286 6.43379 17.9859C6.09892 18.6871 5.91605 19.5006 5.91443 20.3699C5.91748 21.5288 6.23996 22.5876 6.82127 23.4157C7.11268 23.8287 7.47395 24.1864 7.91879 24.4532C8.36059 24.7201 8.90006 24.8902 9.47212 24.889C10.0434 24.8903 10.5821 24.7201 11.0239 24.4532C11.6906 24.0522 12.1735 23.4531 12.509 22.7545C12.8439 22.0532 13.0284 21.2386 13.0284 20.3699C13.0261 19.2109 12.7044 18.1513 12.1231 17.324C11.8301 16.9109 11.469 16.5527 11.024 16.2858ZM10.5404 22.587C10.3559 22.8479 10.1513 23.0341 9.9669 23.1448C9.77935 23.2542 9.62659 23.293 9.47231 23.293C9.31726 23.293 9.1646 23.2542 8.97782 23.1448C8.69879 22.9814 8.37783 22.6364 8.14846 22.1473C7.91431 21.6609 7.76708 21.0417 7.76861 20.3699C7.76546 19.4738 8.03296 18.6711 8.40271 18.1521C8.5872 17.8932 8.7918 17.7057 8.97706 17.5956C9.1646 17.4849 9.31726 17.4468 9.47231 17.4455C9.62659 17.4468 9.77935 17.4849 9.9669 17.5956C10.2444 17.7577 10.5653 18.1033 10.7963 18.5918C11.0288 19.0795 11.1761 19.6981 11.1761 20.3699C11.1783 21.2659 10.9109 22.0672 10.5404 22.587Z" fill="black" fill-opacity="0.8"/>
<path d="M49.3083 17.9465C49.3083 16.5434 48.6447 15.2617 47.5735 14.3429C46.5085 13.4235 45.0188 12.8497 43.3879 12.851C41.7989 12.8497 40.3433 13.3962 39.286 14.2769C38.5714 14.8694 38.035 15.6214 37.7374 16.464H35.6415C35.502 16.3392 35.3438 16.1952 35.1764 16.0404C34.8029 15.6934 34.3905 15.2931 34.1611 15.0369C32.9581 13.7011 31.8427 12.4661 30.6033 11.3498C28.7507 9.67377 26.5742 8.27464 23.5931 7.36582C20.6105 6.4538 16.8745 6.00131 11.744 6C11.1983 6 10.6363 6.00533 10.0567 6.016V6.01731C8.54994 6.02207 7.14699 6.54247 5.98971 7.35909C5.10927 7.97564 4.34261 8.76093 3.67601 9.67098C2.67607 11.0375 1.8956 12.6936 1.35374 14.5504C0.814272 16.4086 0.516663 18.4656 0.516663 20.6354C0.52057 24.4939 1.44685 27.9975 3.04277 30.647C3.84345 31.9715 4.817 33.089 5.98971 33.9138C7.14851 34.7291 8.55146 35.2501 10.059 35.2555C10.6675 35.2661 11.2558 35.2708 11.8271 35.2708C15.4422 35.2708 18.3449 35.0673 20.7672 34.661C22.5841 34.3553 24.1304 33.9344 25.4821 33.3946C27.5121 32.5885 29.081 31.5143 30.422 30.288C31.7513 29.0744 32.8791 27.7246 34.1378 26.2634L35.6694 24.8088H37.7374C38.035 25.6515 38.5714 26.4035 39.286 26.9966C40.3433 27.8766 41.7989 28.4224 43.3879 28.4224C45.0187 28.4224 46.5085 27.8493 47.5735 26.9299C48.6447 26.0111 49.3083 24.7301 49.3083 23.3262C49.3083 22.3401 48.9734 21.418 48.406 20.6366C48.9734 19.8555 49.3083 18.9327 49.3083 17.9465ZM12.6471 32.187C12.3743 32.3618 12.1014 32.4953 11.8301 32.6127H11.8271C11.2768 32.6127 10.7086 32.6074 10.1203 32.5987L10.1049 32.5967H10.0894C9.39188 32.5954 8.69421 32.3744 7.93928 31.8514C7.37817 31.4598 6.81069 30.8966 6.28913 30.1834C5.50389 29.1126 4.82338 27.704 4.34976 26.0753C3.87623 24.4454 3.60492 22.5958 3.60492 20.6355C3.60025 17.154 4.47155 14.0121 5.78292 11.8515C6.43398 10.7707 7.19054 9.94136 7.93928 9.42029C8.69421 8.89644 9.39188 8.67701 10.0894 8.67438H10.1065H10.122C10.6801 8.66364 11.2212 8.65896 11.7443 8.65896C11.7737 8.65896 11.8024 8.65962 11.8319 8.65962C12.1024 8.77643 12.3745 8.91113 12.6473 9.08528C13.937 9.90461 15.1834 11.3905 16.0779 13.3808C16.9771 15.3692 17.5336 17.8525 17.532 20.6355C17.535 24.3479 16.5398 27.5245 15.0772 29.707C14.3478 30.7998 13.506 31.6392 12.6471 32.187ZM33.6479 22.3488C33.3239 22.8833 32.8418 23.4891 32.1783 24.1657L31.7474 24.5753L31.7024 24.6274C31.594 24.7308 31.4963 24.8302 31.38 24.9363L31.4126 24.9643C30.3879 26.1566 29.4818 27.2142 28.5578 28.105C27.7991 28.8382 27.0278 29.4654 26.1449 30.0065C24.8202 30.8165 23.2305 31.4544 20.9579 31.9088C19.434 32.2123 17.5954 32.4232 15.3725 32.5299C16.4592 31.483 17.3785 30.1406 18.0924 28.5652C19.0992 26.3334 19.693 23.6319 19.693 20.6354C19.6914 16.6395 18.642 13.1713 16.9514 10.6371C16.4786 9.92987 15.9507 9.30406 15.381 8.75289C17.0327 8.84435 18.4752 8.99849 19.7347 9.2139C21.3176 9.48346 22.6197 9.84439 23.742 10.2815C25.4255 10.9413 26.7193 11.77 27.9602 12.8262C29.1198 13.8118 30.2282 15.0101 31.4715 16.3898L31.3809 16.4639C32.2133 17.2159 32.9613 17.9025 33.4698 18.5623C33.9813 19.2256 34.2526 19.8294 34.2542 20.5046C34.2541 21.0224 34.0913 21.6156 33.6479 22.3488ZM45.3676 21.5855C45.8963 22.0346 46.2187 22.6405 46.2203 23.3263C46.2187 24.0042 45.9056 24.604 45.3908 25.0504C44.8731 25.4933 44.1755 25.7635 43.388 25.7643C42.6222 25.7636 41.9416 25.5068 41.43 25.0837C40.92 24.6581 40.596 24.079 40.5666 23.4265L40.5077 22.1514H35.7547C35.9842 21.5843 36.1081 21.0338 36.1066 20.5047C36.1081 20.0156 36.0088 19.5566 35.8446 19.1216H40.5076L40.5665 17.8465C40.5959 17.1932 40.9199 16.6148 41.43 16.1898C41.9415 15.766 42.6221 15.5098 43.3879 15.5091C44.1754 15.5098 44.873 15.78 45.3908 16.2231C45.9054 16.668 46.2186 17.2686 46.2202 17.9465C46.2186 18.6323 45.8962 19.2382 45.3691 19.6866L44.2421 20.6367L45.3676 21.5855Z" fill="black" fill-opacity="0.8"/>
<path d="M47.248 14.7224L47.2468 14.7214C46.2762 13.8835 44.9038 13.3498 43.3883 13.351L43.3875 13.351C41.9114 13.3498 40.5702 13.8579 39.606 14.6611L39.6051 14.6618C38.9558 15.2002 38.4746 15.8782 38.2089 16.6305L38.0911 16.964H37.7374H35.6415H35.4505L35.3082 16.8367C35.1662 16.7098 35.006 16.5638 34.8369 16.4074L34.8361 16.4067C34.4616 16.0588 34.0346 15.6451 33.7886 15.3705C32.5833 14.032 31.4852 12.817 30.2687 11.7214L30.2678 11.7206C28.4623 10.0871 26.349 8.72869 23.4473 7.84409L23.4469 7.84397C20.5303 6.95211 16.8491 6.50131 11.744 6.5L47.248 14.7224ZM47.248 14.7224C48.223 15.5588 48.8083 16.7075 48.8083 17.9465C48.8083 18.8163 48.5135 19.6379 48.0015 20.3427L47.7881 20.6365L48.0014 20.9304C48.5136 21.6357 48.8083 22.4565 48.8083 23.3262C48.8083 24.566 48.223 25.7141 47.248 26.5503L47.2468 26.5514C46.2763 27.3892 44.9038 27.9224 43.3879 27.9224C41.9114 27.9224 40.57 27.4148 39.6058 26.6123L39.6053 26.6118C38.9558 26.0728 38.4746 25.3946 38.2089 24.6423L38.0911 24.3088H37.7374H35.6694H35.4698L35.3251 24.4462L33.7935 25.9008L33.7753 25.9181L33.759 25.937C33.634 26.0821 33.5106 26.2257 33.3885 26.3679C32.272 27.6675 31.2583 28.8474 30.0849 29.9187L30.0846 29.919C28.7823 31.1099 27.2642 32.149 25.2976 32.9299L25.2967 32.9302C23.984 33.4544 22.473 33.867 20.6842 34.1679C18.2981 34.5681 15.425 34.7708 11.8271 34.7708C11.2585 34.7708 10.6732 34.7662 10.0678 34.7555L10.0678 34.7555L10.0608 34.7555C8.669 34.7505 7.36413 34.2694 6.27742 33.5048L6.27734 33.5048C5.17257 32.7278 4.24346 31.6667 3.4708 30.3886C1.92927 27.8291 1.02054 24.4181 1.01666 20.6352C1.01668 18.5109 1.30809 16.5012 1.8338 14.6903C2.36222 12.8795 3.11945 11.2784 4.07938 9.96644C4.71918 9.09296 5.44801 8.34884 6.27652 7.76866L6.27799 7.76762C7.36272 7.00219 8.66729 6.5217 10.0582 6.51731L10.5567 6.51573M47.248 14.7224L10.5567 6.51573M10.5567 6.51573V6.50811M10.5567 6.51573V6.50811M10.5567 6.50811C10.9611 6.5027 11.3567 6.5 11.7438 6.5L10.5567 6.50811ZM11.9337 33.1127H11.8301H11.8271C11.2737 33.1127 10.7029 33.1074 10.1129 33.0987L10.0835 33.0982L10.0712 33.0966C9.26267 33.0914 8.47322 32.8296 7.65453 32.2624L7.65311 32.2614C7.03932 31.833 6.43377 31.2282 5.88554 30.4785C5.06034 29.3531 4.35666 27.8897 3.86965 26.215L3.86961 26.2148C3.38241 24.5378 3.10495 22.6413 3.10492 20.6358M11.9337 33.1127L12.9168 32.608C13.8435 32.0168 14.7321 31.1245 15.4928 29.9849C17.0181 27.7088 18.035 24.4322 18.032 20.6355C18.0336 17.7876 17.4644 15.2336 16.5338 13.1755C15.6094 11.1188 14.3064 9.54708 12.9159 8.66355C12.6144 8.47108 12.317 8.32448 12.0302 8.2006L11.9353 8.15962H11.8319L11.7937 8.15932L11.7927 8.15931C11.7788 8.15915 11.7618 8.15896 11.7443 8.15896C11.2197 8.15896 10.677 8.16364 10.1172 8.17438H10.1065L10.0894 8.17438L10.0876 8.17439C9.27418 8.17745 8.47951 8.43684 7.65423 9.0095L7.65367 9.00989C6.83499 9.57963 6.03366 10.4664 5.35503 11.5929C3.98886 13.8441 3.10021 17.0787 3.10492 20.6358M11.9337 33.1127L12.0288 33.0716M11.9337 33.1127L12.0288 33.0716M3.10492 20.6358C3.10492 20.636 3.10492 20.6361 3.10492 20.6362L3.60492 20.6355H3.10492C3.10492 20.6356 3.10492 20.6357 3.10492 20.6358ZM12.0288 33.0716C12.3143 32.9479 12.6131 32.8025 12.916 32.6086L12.0288 33.0716ZM34.0757 22.6076L34.0754 22.608C33.7258 23.1848 33.2167 23.8209 32.5353 24.5157L32.5292 24.522L32.5228 24.528L32.1097 24.9207L32.0809 24.9542L32.065 24.9726L32.064 24.9735L31.7918 25.2902L31.73 25.3621C30.7344 26.5207 29.8304 27.5726 28.9053 28.4645L34.0757 22.6076ZM34.0757 22.6076C34.5536 21.8174 34.754 21.1355 34.7542 20.5047V20.5035C34.7523 19.6777 34.4147 18.9687 33.8657 18.257C33.4198 17.6784 32.8089 17.0896 32.1467 16.4838M34.0757 22.6076L32.1467 16.4838M32.1467 16.4838L32.1942 16.4449L31.843 16.0551C30.601 14.6769 29.4723 13.4552 28.2841 12.4453C28.2842 12.4454 28.2842 12.4454 28.2843 12.4455L32.1467 16.4838ZM26.4062 30.4328L26.4058 30.4331C25.0229 31.2786 23.3761 31.9352 21.0559 32.399L21.0555 32.3991C19.5009 32.7088 17.6365 32.9218 15.3964 33.0293L14.0671 33.0931L15.0256 32.1698C16.0602 31.1731 16.9451 29.8855 17.6369 28.3591C18.6121 26.1972 19.193 23.5667 19.193 20.6356L26.4062 30.4328ZM26.4062 30.4328C27.3265 29.8687 28.1262 29.2173 28.9049 28.4649L26.4062 30.4328ZM14.0693 8.17948L15.4087 8.25365C17.0746 8.34591 18.5365 8.50172 19.8189 8.72103L14.0693 8.17948ZM14.0693 8.17948L15.0334 9.11223M14.0693 8.17948L15.0334 9.11223M15.0334 9.11223C15.5779 9.63904 16.0829 10.2376 16.5358 10.915M15.0334 9.11223L16.5358 10.915M23.9235 9.81554L23.9245 9.81594C25.6655 10.4983 27.0062 11.3577 28.284 12.4452L23.9235 9.81554ZM23.9235 9.81554C22.7654 9.36455 21.4302 8.99545 19.819 8.72106L23.9235 9.81554ZM16.5358 10.915C18.1639 13.3558 19.1914 16.7242 19.193 20.6354L16.5358 10.915ZM45.6913 21.2044L45.6899 21.2033L45.0179 20.6367L45.6914 20.0689L45.6931 20.0674C46.3144 19.5389 46.7182 18.8008 46.7202 17.9476L46.7202 17.9453C46.7182 17.1036 46.3267 16.3712 45.7177 15.8448L45.7158 15.8432C45.105 15.3205 44.2915 15.0099 43.3883 15.0091L43.3875 15.0091C42.5091 15.0099 41.7149 15.3044 41.111 15.8047L41.1099 15.8056C40.5079 16.3072 40.1036 17.0108 40.067 17.8239L40.0301 18.6216H35.8446H35.1213L35.3768 19.2982C35.5233 19.686 35.6079 20.0845 35.6066 20.5031L35.6066 20.5061C35.6079 20.9561 35.5024 21.4418 35.2912 21.9638L35.013 22.6514H35.7547H40.0302L40.0671 23.449C40.1037 24.2614 40.508 24.9654 41.1097 25.4676L41.1114 25.4691C41.715 25.9682 42.5089 26.2635 43.3876 26.2643H43.3885C44.2916 26.2634 45.1051 25.9529 45.7159 25.4303L45.7184 25.4281C46.3267 24.9007 46.7183 24.1695 46.7203 23.3275L46.7203 23.3251C46.7183 22.4718 46.3143 21.7336 45.6913 21.2044Z" stroke="black" stroke-opacity="0.8"/>
<path d="M47.248 14.7224L47.2468 14.7214C46.2762 13.8835 44.9038 13.3498 43.3883 13.351L43.3875 13.351C41.9114 13.3498 40.5702 13.8579 39.606 14.6611L39.6051 14.6618C38.9558 15.2002 38.4746 15.8782 38.2089 16.6305L38.0911 16.964H37.7374H35.6415H35.4505L35.3082 16.8367C35.1662 16.7098 35.006 16.5638 34.8369 16.4074L34.8361 16.4067C34.4616 16.0588 34.0346 15.6451 33.7886 15.3705C32.5833 14.032 31.4852 12.817 30.2687 11.7214L30.2678 11.7206C28.4623 10.0871 26.349 8.72869 23.4473 7.84409L23.4469 7.84397C20.5303 6.95211 16.8491 6.50131 11.744 6.5L47.248 14.7224ZM47.248 14.7224C48.223 15.5588 48.8083 16.7075 48.8083 17.9465C48.8083 18.8163 48.5135 19.6379 48.0015 20.3427L47.7881 20.6365L48.0014 20.9304C48.5136 21.6357 48.8083 22.4565 48.8083 23.3262C48.8083 24.566 48.223 25.7141 47.248 26.5503L47.2468 26.5514C46.2763 27.3892 44.9038 27.9224 43.3879 27.9224C41.9114 27.9224 40.57 27.4148 39.6058 26.6123L39.6053 26.6118C38.9558 26.0728 38.4746 25.3946 38.2089 24.6423L38.0911 24.3088H37.7374H35.6694H35.4698L35.3251 24.4462L33.7935 25.9008L33.7753 25.9181L33.759 25.937C33.634 26.0821 33.5106 26.2257 33.3885 26.3679C32.272 27.6675 31.2583 28.8474 30.0849 29.9187L30.0846 29.919C28.7823 31.1099 27.2642 32.149 25.2976 32.9299L25.2967 32.9302C23.984 33.4544 22.473 33.867 20.6842 34.1679C18.2981 34.5681 15.425 34.7708 11.8271 34.7708C11.2585 34.7708 10.6732 34.7662 10.0678 34.7555L10.0678 34.7555L10.0608 34.7555C8.669 34.7505 7.36413 34.2694 6.27742 33.5048L6.27734 33.5048C5.17257 32.7278 4.24346 31.6667 3.4708 30.3886C1.92927 27.8291 1.02054 24.4181 1.01666 20.6352C1.01668 18.5109 1.30809 16.5012 1.8338 14.6903C2.36222 12.8795 3.11945 11.2784 4.07938 9.96644C4.71918 9.09296 5.44801 8.34884 6.27652 7.76866L6.27799 7.76762C7.36272 7.00219 8.66729 6.5217 10.0582 6.51731L10.5567 6.51573M47.248 14.7224L10.5567 6.51573M10.5567 6.51573V6.50811M10.5567 6.51573V6.50811M10.5567 6.50811C10.9611 6.5027 11.3567 6.5 11.7438 6.5L10.5567 6.50811ZM11.9337 33.1127H11.8301H11.8271C11.2737 33.1127 10.7029 33.1074 10.1129 33.0987L10.0835 33.0982L10.0712 33.0966C9.26267 33.0914 8.47322 32.8296 7.65453 32.2624L7.65311 32.2614C7.03932 31.833 6.43377 31.2282 5.88554 30.4785C5.06034 29.3531 4.35666 27.8897 3.86965 26.215L3.86961 26.2148C3.38241 24.5378 3.10495 22.6413 3.10492 20.6358M11.9337 33.1127L12.9168 32.608C13.8435 32.0168 14.7321 31.1245 15.4928 29.9849C17.0181 27.7088 18.035 24.4322 18.032 20.6355C18.0336 17.7876 17.4644 15.2336 16.5338 13.1755C15.6094 11.1188 14.3064 9.54708 12.9159 8.66355C12.6144 8.47108 12.317 8.32448 12.0302 8.2006L11.9353 8.15962H11.8319L11.7937 8.15932L11.7927 8.15931C11.7788 8.15915 11.7618 8.15896 11.7443 8.15896C11.2197 8.15896 10.677 8.16364 10.1172 8.17438H10.1065L10.0894 8.17438L10.0876 8.17439C9.27418 8.17745 8.47951 8.43684 7.65423 9.0095L7.65367 9.00989C6.83499 9.57963 6.03366 10.4664 5.35503 11.5929C3.98886 13.8441 3.10021 17.0787 3.10492 20.6358M11.9337 33.1127L12.0288 33.0716M11.9337 33.1127L12.0288 33.0716M3.10492 20.6358C3.10492 20.636 3.10492 20.6361 3.10492 20.6362L3.60492 20.6355H3.10492C3.10492 20.6356 3.10492 20.6357 3.10492 20.6358ZM12.0288 33.0716C12.3143 32.9479 12.6131 32.8025 12.916 32.6086L12.0288 33.0716ZM34.0757 22.6076L34.0754 22.608C33.7258 23.1848 33.2167 23.8209 32.5353 24.5157L32.5292 24.522L32.5228 24.528L32.1097 24.9207L32.0809 24.9542L32.065 24.9726L32.064 24.9735L31.7918 25.2902L31.73 25.3621C30.7344 26.5207 29.8304 27.5726 28.9053 28.4645L34.0757 22.6076ZM34.0757 22.6076C34.5536 21.8174 34.754 21.1355 34.7542 20.5047V20.5035C34.7523 19.6777 34.4147 18.9687 33.8657 18.257C33.4198 17.6784 32.8089 17.0896 32.1467 16.4838M34.0757 22.6076L32.1467 16.4838M32.1467 16.4838L32.1942 16.4449L31.843 16.0551C30.601 14.6769 29.4723 13.4552 28.2841 12.4453C28.2842 12.4454 28.2842 12.4454 28.2843 12.4455L32.1467 16.4838ZM26.4062 30.4328L26.4058 30.4331C25.0229 31.2786 23.3761 31.9352 21.0559 32.399L21.0555 32.3991C19.5009 32.7088 17.6365 32.9218 15.3964 33.0293L14.0671 33.0931L15.0256 32.1698C16.0602 31.1731 16.9451 29.8855 17.6369 28.3591C18.6121 26.1972 19.193 23.5667 19.193 20.6356L26.4062 30.4328ZM26.4062 30.4328C27.3265 29.8687 28.1262 29.2173 28.9049 28.4649L26.4062 30.4328ZM14.0693 8.17948L15.4087 8.25365C17.0746 8.34591 18.5365 8.50172 19.8189 8.72103L14.0693 8.17948ZM14.0693 8.17948L15.0334 9.11223M14.0693 8.17948L15.0334 9.11223M15.0334 9.11223C15.5779 9.63904 16.0829 10.2376 16.5358 10.915M15.0334 9.11223L16.5358 10.915M23.9235 9.81554L23.9245 9.81594C25.6655 10.4983 27.0062 11.3577 28.284 12.4452L23.9235 9.81554ZM23.9235 9.81554C22.7654 9.36455 21.4302 8.99545 19.819 8.72106L23.9235 9.81554ZM16.5358 10.915C18.1639 13.3558 19.1914 16.7242 19.193 20.6354L16.5358 10.915ZM45.6913 21.2044L45.6899 21.2033L45.0179 20.6367L45.6914 20.0689L45.6931 20.0674C46.3144 19.5389 46.7182 18.8008 46.7202 17.9476L46.7202 17.9453C46.7182 17.1036 46.3267 16.3712 45.7177 15.8448L45.7158 15.8432C45.105 15.3205 44.2915 15.0099 43.3883 15.0091L43.3875 15.0091C42.5091 15.0099 41.7149 15.3044 41.111 15.8047L41.1099 15.8056C40.5079 16.3072 40.1036 17.0108 40.067 17.8239L40.0301 18.6216H35.8446H35.1213L35.3768 19.2982C35.5233 19.686 35.6079 20.0845 35.6066 20.5031L35.6066 20.5061C35.6079 20.9561 35.5024 21.4418 35.2912 21.9638L35.013 22.6514H35.7547H40.0302L40.0671 23.449C40.1037 24.2614 40.508 24.9654 41.1097 25.4676L41.1114 25.4691C41.715 25.9682 42.5089 26.2635 43.3876 26.2643H43.3885C44.2916 26.2634 45.1051 25.9529 45.7159 25.4303L45.7184 25.4281C46.3267 24.9007 46.7183 24.1695 46.7203 23.3275L46.7203 23.3251C46.7183 22.4718 46.3143 21.7336 45.6913 21.2044Z" stroke="black" stroke-opacity="0.2"/>
</g>
<defs>
<clipPath id="clip0_41_422">
<rect width="48.7916" height="42" fill="white" transform="translate(0.516663)"/>
</clipPath>
</defs>
</svg>
