<svg width="50" height="40" viewBox="0 0 50 40" fill="none" xmlns="http://www.w3.org/2000/svg">
<path d="M7.03515 11.6666H39.5629C41.8085 11.6666 43.6289 13.159 43.6289 15H7.03515V11.6666Z" fill="#222222"/>
<path d="M7.03515 18.3334H43.6289V25.3334C43.6289 28.1337 43.6289 29.5337 42.9641 30.6034C42.3794 31.5442 41.4465 32.309 40.2988 32.7884C38.9941 33.3334 37.2864 33.3334 33.8705 33.3334H16.7935C13.3777 33.3334 11.6699 33.3334 10.3652 32.7884C9.21764 32.309 8.28462 31.5442 7.69989 30.6034C7.03515 29.5337 7.03515 28.1337 7.03515 25.3334V18.3334Z" fill="#222222"/>
<path d="M7.03515 11.6666C7.03515 10.1135 7.03515 9.33693 7.34465 8.72434C7.75733 7.90759 8.54887 7.25868 9.54513 6.92036C10.2924 6.66663 11.2396 6.66663 13.1341 6.66663H17.8977C19.5597 6.66663 20.3906 6.66663 21.1378 6.92036C21.8851 7.17409 22.4726 7.65581 23.6479 8.61924L27.365 11.6666H7.03515Z" fill="#222222"/>
</svg>
