<svg width="40" height="37" viewBox="0 0 40 37" fill="none" xmlns="http://www.w3.org/2000/svg">
<g clip-path="url(#clip0_41_460)">
<path d="M39.3681 30.9975L33.246 13.0603C32.9753 12.2673 32.1962 11.7301 31.3169 11.7301H24.8562C25.3799 10.9101 25.6872 9.95271 25.6872 8.92614C25.6872 5.92829 23.1139 3.48901 19.9512 3.48901C16.7887 3.48901 14.2153 5.92823 14.2153 8.92614C14.2153 9.95265 14.5226 10.9101 15.0463 11.7301H8.58573C7.70646 11.7301 6.92739 12.2673 6.65671 13.0603L0.534603 30.9975C0.110914 32.2388 1.08732 33.5109 2.46363 33.5109H37.439C38.8154 33.511 39.7917 32.2389 39.3681 30.9975ZM16.9187 8.92614C16.9187 7.34088 18.2789 6.05151 19.9513 6.05151C21.6237 6.05151 22.9839 7.34088 22.9839 8.92614C22.9839 10.2988 21.9625 11.4461 20.6032 11.7301H19.2995C17.9401 11.4462 16.9187 10.2988 16.9187 8.92614ZM17.2701 27.2683L15.5178 24.0788H14.6828V27.2683H12.6527V19.4055H14.6828V22.441H15.5178L17.2352 19.4055H19.4163L17.1766 23.1663V23.1887L19.5438 27.2683H17.2701ZM27.9473 27.2683H26.2535V27.048C26.2535 26.8832 26.2649 26.7185 26.2649 26.7185H26.2422C26.2422 26.7185 25.4412 27.3999 24.0611 27.3999C21.9376 27.3999 19.9887 25.8938 19.9887 23.3203C19.9887 21.0334 21.81 19.2738 24.3397 19.2738C26.4623 19.2738 27.5298 20.318 27.5298 20.318L26.5549 21.7587C26.5549 21.7587 25.7085 21.0334 24.5363 21.0334C22.7963 21.0334 22.0888 22.0891 22.0888 23.254C22.0888 24.7504 23.1789 25.6404 24.4674 25.6404C25.4413 25.6404 26.1487 25.0691 26.1487 25.0691V24.4638H24.9774V22.8251H27.9473V27.2683Z" fill="black" fill-opacity="0.9"/>
</g>
<defs>
<clipPath id="clip0_41_460">
<rect width="39.0333" height="37" fill="white" transform="translate(0.434662)"/>
</clipPath>
</defs>
</svg>
