<svg width="53" height="42" viewBox="0 0 53 42" fill="none" xmlns="http://www.w3.org/2000/svg">
<path fill-rule="evenodd" clip-rule="evenodd" d="M40.6927 8.53992C41.5616 8.53992 42.2662 9.10403 42.2662 9.79992V20.9999C42.2662 21.6958 41.5616 22.2599 40.6927 22.2599C39.8237 22.2599 39.1192 21.6958 39.1192 20.9999V12.8418L16.5176 30.9399H26.7057C27.5748 30.9399 28.2792 31.5041 28.2792 32.1999C28.2792 32.8957 27.5748 33.4599 26.7057 33.4599H12.7188C12.3015 33.4599 11.9012 33.3272 11.6061 33.0909C11.311 32.8546 11.1453 32.534 11.1453 32.1999V20.9999C11.1453 20.304 11.8498 19.7399 12.7188 19.7399C13.5878 19.7399 14.2923 20.304 14.2923 20.9999V29.158L36.8938 11.0599H26.7057C25.8367 11.0599 25.1322 10.4958 25.1322 9.79992C25.1322 9.10403 25.8367 8.53992 26.7057 8.53992H40.6927Z" fill="black" fill-opacity="0.9"/>
</svg>
